<svg xmlns="http://www.w3.org/2000/svg" xmlns:xlink="http://www.w3.org/1999/xlink" width="1920.001" height="827.232" viewBox="0 0 1920.001 827.232">
  <defs>
    <linearGradient id="linear-gradient" x1="0.5" x2="0.5" y2="1" gradientUnits="objectBoundingBox">
      <stop offset="0" stop-color="#0143a4"/>
      <stop offset="1" stop-color="#1468e4"/>
    </linearGradient>
  </defs>
  <g id="bg" transform="translate(251.734 1705.464) rotate(-90)">
    <path id="bg-2" data-name="bg" d="M39.862,1920c10.39-105.2-9.666-211.045-25.306-314.948s-26.274-214.811,1.757-314.3c23.307-82.592,70.823-147.937,113.967-214.87s84.53-142.756,90.857-230.794c8.787-122.211-51.953-245.188-26.361-363.072,12.345-56.838,43.187-102.874,75.238-143.522s66.67-79.119,90.241-129.157S394.7,53,374.929.015L558.686,0H799.911V1920H558.686v0Z" transform="translate(905.553 -251.735)" fill="url(#linear-gradient)"/>
    <path id="Path_166" data-name="Path 166" d="M-12346.984,4343.79c52.952-19.78,159.2-8.9,209.211,14.68s88.467,58.229,129.1,90.29c26.612,21,86.639,62.92,143.443,75.27,117.83,25.6,274.89-32.71,362.887-26.38s163.789,47.729,230.681,90.9,115.32,85.97,214.755,114.02,210.284,17.41,314.138,1.76,209.646-35.71,314.789-25.32" transform="translate(5599.232 12095.75) rotate(90)" fill="none" stroke="#ffd21f" stroke-width="2"/>
  </g>
</svg>
